<svg t="1588897197412" class="icon" viewBox="0 0 1024 1024" version="1.1" xmlns="http://www.w3.org/2000/svg" p-id="10929" width="200" height="200">
    <path d="M514 114.3c-219.9 0-398.8 178.9-398.8 398.8 0 220 178.9 398.9 398.8 398.9s398.8-178.9 398.8-398.8S733.9 114.3 514 114.3z m200.6 311.5c-20.2 21-53.6 21.6-74.5 1.4L592 380.8c-5.2-5-13.9-1.3-13.9 5.9v327.2c0 59-53.6 105.3-122 105.3s-122-46.2-122-105.3c0-56.5 49.1-101.3 113.3-105 4.7-0.3 8.7 3.5 8.7 8.2v87.2c0 5.4 5.1 9.5 10.3 7.9 0.3-0.1 0.5-0.2 0.7-0.2 3.4-1.1 5.6-4.3 5.6-7.8V274.1c0-58 69.6-87.6 111.4-47.4l129.2 124.4c20.9 20.4 21.5 53.7 1.3 74.7z" p-id="10930"></path>
</svg>