<svg t="1590117020784" class="icon" viewBox="0 0 1221 1024" version="1.1" xmlns="http://www.w3.org/2000/svg" p-id="12036" width="64" height="64">
    <path d="M364.123468 772.898426c-92.963281 0-195.006199-24.72103-287.313305-69.615641l-2.716261-1.327611c-11.59752-5.463042-48.984263-25.743443-42.926085-57.407725 1.648069-8.637101 9.155937-28.993801 42.483548-31.008107 3.601335-0.228898 36.623748-2.731521 85.989509-21.88269 51.395327-19.929423 99.479256-49.5031 142.939437-87.912255C419.654226 383.710062 557.2527 327.126371 639.564574 293.279924l11.887458-4.898427c76.299475-31.572723 154.12494-93.802575 194.105866-138.269909 37.75298-41.979971 71.568908-97.541249 71.965665-98.090606l2.655222-4.486409 4.120172-3.280877 1.709108-1.43443c5.432523-4.577969 14.52742-12.207916 28.154506-12.207916 5.79876 0 25.438245 1.907487 34.334764 26.475918 2.624702 7.24845 4.577969 16.785885 6.180258 30.840247l0.167859 1.52599v1.52599c2.395804 120.888889-15.885551 219.559371-65.205532 351.9237-26.521698 71.080591-88.385312 140.513114-178.845971 200.576061-82.403433 54.752504-181.730091 96.701955-279.454458 118.096328a502.050548 502.050548 0 0 1-107.185503 11.322842z" fill="#76DDA2" p-id="12037"></path>
    <path d="M954.162571 61.03958c4.196471 0 7.446829 6.821173 10.20887 30.336672 2.136385 108.207916-12.101097 203.292322-63.298045 340.661898S651.84879 690.800191 464.777736 731.773009a470.004769 470.004769 0 0 1-100.715308 10.681927c-144.770625 0-263.034812-61.436338-277.028135-68.028613-17.136862-8.072485-42.300429-28.429185-11.551741-30.321411s140.238436-22.401526 248.125894-118.157368c118.569385-122.048641 260.043872-176.495947 339.486886-209.350501C747.452032 281.712923 828.131098 215.164521 868.295142 170.529328s75.353362-102.668574 75.353362-102.668575c4.104912-3.357177 7.629948-6.821173 10.559847-6.821173m0-61.03958c-24.873629 0-40.988078 13.642346-47.885551 19.471626l-1.327611 1.113972-8.118264 6.638055-5.447782 8.972818C891.184984 36.623748 858.498289 90.033381 822.851174 129.709108c-37.75298 41.979971-111.137816 100.715308-183.118741 130.472103l-11.826419 4.867907c-84.31092 34.670482-225.159752 92.566524-346.399618 216.583691C241.006634 517.310443 196.279882 544.778255 148.59271 563.242728c-45.855985 17.777778-75.59752 19.837864-76.848832 19.837863a88.76681 88.76681 0 0 0-32.671435 7.782547A66.533143 66.533143 0 0 0 1.182123 638.840248c-2.8536 14.878398-2.94516 43.841679 28.398665 70.561755A145.228422 145.228422 0 0 0 61.046691 729.590844l2.365284 1.144492a734.000954 734.000954 0 0 0 102.744874 40.896519c67.143538 21.104435 133.75298 31.801621 197.905579 31.801621a532.570339 532.570339 0 0 0 113.716738-12.024797C579.181169 769.205532 682.124422 725.699571 767.579834 668.902241c121.133047-80.419647 170.529328-161.602289 190.626609-215.546018 26.628517-71.477349 43.963758-132.455889 54.538866-191.877921 9.812113-55.103481 13.733906-109.535527 12.574153-171.307582v-2.96042l-0.350977-2.945159c-1.938007-16.511206-4.33381-28.123987-7.797807-37.676681C1004.749124 12.207916 976.472538 0 954.162571 0z" fill="#434E52" p-id="12038"></path>
    <path d="M557.496858 993.41917a694.096328 694.096328 0 0 1-95.496423-6.424416l-3.051979-0.396757c-12.726753-1.52599-54.584645-9.155937-58.750596-41.049118-1.144492-8.7134-0.427277-30.321412 30.626609-42.727706 3.357177-1.342871 33.907487-14.069623 74.773486-47.732952 42.559847-35.097759 78.954697-78.191702 108.192656-128.289938 73.506915-150.691464 186.475918-247.576538 254.031474-305.503099l9.751073-8.377683c62.56557-53.897949 116.967096-137.339056 141.00143-192.137339 22.630424-51.547926 37.447783-115.090129 37.585122-115.731044l1.175012-5.096805 2.807821-4.42537c0.412017-0.640916 0.793515-1.281831 1.175012-1.892227 4.074392-6.638054 13.627086-22.187887 33.571769-22.187887 25.529804 0 37.218884 25.117787 45.779685 43.444921l0.625656 1.342871 0.488316 1.38865C1182.008065 231.690987 1195.574112 331.139723 1190.278928 472.263233c-2.88412 76.024797-39.874106 161.342871-106.956605 246.737244-61.16166 77.825465-142.252742 148.783977-228.34907 199.736767-104.331903 61.756795-219.315212 74.773486-297.384835 74.773486z" fill="#FFFFFF" p-id="12039"></path>
    <path d="M1094.980883 101.981879c3.845494 0 9.003338 6.287077 18.082976 25.804482 35.952313 102.088698 52.219361 196.852647 46.680019 343.34764S1004.108208 794.948975 839.301341 892.490224C741.149696 950.691464 632.92652 962.89938 557.496858 962.89938a674.060086 674.060086 0 0 1-94.794468-6.607535c-18.800191-2.288984-49.075823-13.733906-20.478779-25.178826s126.138293-65.220792 198.592275-189.970434c74.315689-152.980448 191.587983-249.026228 256.747734-305.197902 69.157845-59.513591 124.917501-148.020982 149.028136-202.956605s39.385789-121.117787 39.385789-121.117787c3.204578-5.035765 5.600381-9.964711 9.018598-9.964712m0-61.03958A65.617549 65.617549 0 0 0 1045.065766 64.091559a96.228898 96.228898 0 0 0-9.674773 13.550787l-0.915594 1.52599-5.630901 8.850739-2.365284 10.22413c-0.137339 0.579876-14.374821 61.497377-35.799714 110.313781-22.691464 51.700525-73.979971 130.487363-132.959466 181.272294l-9.705293 8.331903c-69.203624 59.345732-184.79733 158.47401-261.081545 314.247019-27.315212 46.5732-61.176919 86.645684-100.715308 119.149261-37.981879 31.252265-65.617549 42.498808-66.746781 42.956605a88.76681 88.76681 0 0 0-28.597043 17.625179 66.533143 66.533143 0 0 0-20.951836 57.407725c1.953267 15.015737 10.941345 42.544588 49.075823 58.09442a145.228422 145.228422 0 0 0 36.25751 9.293277l2.609442 0.350977a723.410587 723.410587 0 0 0 99.631855 6.653314 700.200286 700.200286 0 0 0 145.060563-14.771578c61.451598-13.04721 117.943729-34.655222 167.858846-64.213639C959.717173 892.185026 1043.783935 818.617072 1107.265099 737.861707c89.835002-114.342394 111.275155-206.908918 113.45732-264.438722 2.88412-76.299475 0.228898-139.551741-8.347163-199.30949-7.965665-55.393419-21.226514-108.345255-41.751073-166.607534l-0.976633-2.792561-1.251312-2.685741c-6.226037-13.382928-11.444921-22.676204-16.892703-30.306152-19.410587-26.826896-43.750119-30.840248-56.461612-30.840248z" fill="#434E52" p-id="12040"></path>
    <path d="M1040.625137 531.395327a76.192656 76.192656 0 1 1 76.177396-76.192657 76.299475 76.299475 0 0 1-76.177396 76.192657z" fill="#76DDA2" p-id="12041"></path>
    <path d="M1040.625137 409.545064A45.657606 45.657606 0 1 1 994.952271 455.21793a45.672866 45.672866 0 0 1 45.657606-45.657606m0-61.03958a106.697186 106.697186 0 1 0 106.697186 106.697186 106.819266 106.819266 0 0 0-106.697186-106.697186z" fill="#434E52" p-id="12042"></path>
    <path d="M910.214073 731.238913a84.448259 84.448259 0 1 1 84.44826-84.44826 84.539819 84.539819 0 0 1-84.44826 84.44826z" fill="#76DDA2" p-id="12043"></path>
    <path d="M910.214073 592.877444a53.928469 53.928469 0 1 1-53.928469 53.928469 53.928469 53.928469 0 0 1 53.928469-53.928469m0-61.03958a114.96805 114.96805 0 1 0 114.96805 114.968049 115.090129 115.090129 0 0 0-114.96805-114.968049z" fill="#434E52" p-id="12044"></path>
    <path d="M739.242209 880.984263a76.192656 76.192656 0 1 1 76.192656-76.192656 76.299475 76.299475 0 0 1-76.192656 76.192656z" fill="#76DDA2" p-id="12045"></path>
    <path d="M739.257469 759.134001a45.657606 45.657606 0 1 1-45.657606 45.657606 45.672866 45.672866 0 0 1 45.657606-45.657606m0-61.03958a106.697186 106.697186 0 1 0 106.697186 106.697186 106.819266 106.819266 0 0 0-106.697186-106.697186z" fill="#434E52" p-id="12046"></path>
</svg>